<?xml version="1.0" standalone="no"?>
<!DOCTYPE svg PUBLIC "-//W3C//DTD SVG 20010904//EN"
 "http://www.w3.org/TR/2001/REC-SVG-20010904/DTD/svg10.dtd">
<svg version="1.0" xmlns="http://www.w3.org/2000/svg"
 width="272.000000pt" height="272.000000pt" viewBox="0 0 272.000000 272.000000"
 preserveAspectRatio="xMidYMid meet">
<metadata>
Created by potrace 1.11, written by Peter Selinger 2001-2013
</metadata>
<g transform="translate(0.000000,272.000000) scale(0.100000,-0.100000)"
fill="#000000" stroke="none">
<path d="M1254 2688 c6 -19 -10 -35 -16 -16 -3 7 -16 13 -31 13 -14 1 -24 -2
-21 -6 2 -4 13 -6 23 -4 25 5 33 -16 13 -35 -14 -13 -15 -12 -9 3 4 11 1 17
-9 17 -9 0 -13 -5 -9 -12 4 -7 1 -6 -7 3 -7 8 -22 18 -33 22 -19 7 -19 6 -1
-7 18 -15 14 -36 -7 -36 -9 0 -9 2 -1 8 8 5 4 13 -13 26 -24 18 -24 18 -11 -3
11 -18 10 -22 -7 -35 -15 -11 -22 -11 -27 -3 -4 7 -8 8 -8 2 0 -5 -5 -4 -12 3
-8 8 -8 15 3 28 12 16 12 17 -1 9 -8 -5 -23 -10 -32 -10 -10 -1 -21 -4 -24 -8
-9 -9 6 -28 17 -21 5 3 7 10 4 15 -4 5 -1 9 4 9 6 0 11 -7 11 -15 0 -8 -5 -15
-11 -15 -5 0 -7 -5 -3 -12 4 -6 3 -8 -4 -4 -5 3 -12 3 -15 -1 -2 -5 -2 -2 -1
5 2 6 -3 12 -11 12 -8 0 -14 -3 -14 -7 1 -5 1 -15 0 -23 -1 -12 -3 -12 -12 2
-6 11 -16 15 -27 11 -15 -6 -15 -5 -3 11 11 13 16 14 23 4 8 -10 9 -10 6 1 -2
8 -12 15 -22 17 -10 1 -15 0 -12 -3 3 -3 -2 -13 -11 -22 -12 -11 -17 -13 -21
-3 -2 6 -8 12 -13 12 -5 0 -4 -9 3 -19 9 -14 16 -17 24 -10 8 7 14 6 19 -1 3
-6 11 -7 17 -4 7 4 8 2 4 -5 -6 -8 -12 -9 -20 -2 -9 7 -16 7 -25 -2 -11 -9
-14 -9 -18 1 -3 7 -13 17 -24 22 -14 8 -17 7 -13 -3 3 -8 -2 -14 -11 -14 -8 0
-15 5 -15 10 0 6 -3 8 -6 5 -3 -4 2 -18 11 -32 16 -24 16 -26 1 -20 -12 5 -15
2 -10 -12 6 -18 6 -18 -8 0 -14 18 -15 18 -30 -3 -11 -15 -21 -19 -34 -14 -17
6 -18 5 -4 -13 14 -17 14 -18 -1 -6 -18 14 -52 6 -42 -11 4 -6 1 -7 -7 -2 -10
6 -12 4 -6 -11 5 -14 4 -16 -4 -8 -13 13 2 51 24 66 8 6 7 8 -1 8 -7 0 -16 -7
-21 -16 -5 -8 -17 -17 -28 -18 -12 -2 -20 -12 -22 -30 -2 -18 0 -26 7 -22 7 5
8 1 4 -10 -4 -11 -8 -13 -11 -6 -2 7 -8 10 -12 7 -5 -3 -12 0 -16 6 -4 7 -3 9
4 6 6 -5 8 1 5 14 -5 18 -7 19 -15 5 -6 -10 -4 -24 3 -38 12 -23 12 -23 -9 -5
-15 14 -22 15 -28 6 -4 -8 -3 -10 4 -5 8 5 10 1 5 -9 -4 -13 -8 -14 -14 -4
-11 18 -39 21 -32 3 3 -8 8 -12 12 -9 4 2 8 -2 8 -10 0 -13 -4 -12 -19 2 -10
9 -18 12 -18 7 0 -5 -5 -2 -10 6 -8 12 -10 10 -11 -10 0 -14 -3 -19 -6 -12 -2
6 -9 12 -14 12 -6 0 -8 -4 -5 -8 3 -5 -1 -9 -9 -9 -8 0 -12 4 -9 9 3 4 0 8 -5
8 -6 0 -11 -7 -11 -15 0 -8 -4 -15 -10 -15 -5 0 -7 7 -4 15 4 8 1 15 -4 15 -6
0 -13 -8 -15 -17 -4 -17 -5 -17 -6 0 0 9 -6 17 -12 17 -5 0 -8 -4 -5 -8 2 -4
-5 -9 -17 -9 -17 -2 -19 0 -7 7 8 5 10 10 5 10 -6 0 -16 -5 -23 -12 -9 -9 -15
-9 -24 1 -11 10 -9 11 7 6 16 -5 17 -5 5 3 -17 13 -33 5 -26 -14 3 -8 0 -11
-10 -7 -17 6 -18 15 -2 31 9 9 9 12 0 12 -7 0 -12 -5 -12 -11 0 -6 -7 -8 -16
-5 -13 5 -14 3 -6 -7 8 -9 8 -17 0 -27 -8 -13 -9 -12 -5 2 7 21 -19 32 -41 18
-14 -9 -13 -10 5 -5 18 5 21 2 18 -14 -2 -12 1 -21 8 -21 7 0 4 -5 -6 -11 -9
-6 -14 -15 -11 -21 4 -6 3 -8 -2 -5 -5 3 -10 -7 -9 -21 0 -15 7 -30 15 -34 12
-5 11 -7 -4 -7 -12 -1 -16 -6 -12 -16 3 -8 0 -15 -6 -15 -6 0 -1 -12 13 -27
13 -14 18 -23 12 -19 -7 4 -13 2 -13 -4 0 -6 -5 -8 -12 -4 -7 4 -8 3 -4 -4 4
-6 14 -8 23 -5 11 4 14 2 11 -8 -3 -8 -13 -12 -23 -11 -16 3 -17 1 -6 -12 7
-9 18 -13 25 -10 6 3 0 -4 -13 -15 -13 -12 -18 -21 -12 -21 7 0 9 -5 6 -10 -4
-6 -12 -7 -18 -4 -7 4 -9 4 -5 0 3 -4 0 -19 -8 -34 -12 -24 -12 -29 4 -41 15
-12 15 -13 -7 -8 -18 4 -21 3 -12 -6 14 -14 15 -47 1 -47 -7 0 -7 -6 -1 -19
14 -25 -13 -51 -32 -32 -9 10 -8 11 4 6 10 -4 20 -1 25 6 5 9 2 10 -11 5 -15
-5 -16 -4 -5 9 7 8 9 15 4 15 -5 0 -18 -12 -28 -27 -11 -14 -14 -23 -8 -19 7
4 12 1 12 -8 0 -10 6 -13 17 -9 13 4 12 1 -3 -10 -14 -11 -20 -25 -19 -42 2
-14 -1 -27 -6 -31 -5 -3 -7 -9 -4 -14 3 -4 -2 -13 -10 -20 -12 -10 -13 -16 -3
-29 12 -14 11 -14 -4 -3 -14 12 -21 11 -40 -2 -12 -9 -19 -16 -14 -16 5 0 2
-8 -5 -17 -12 -16 -12 -17 2 -6 9 7 19 10 23 6 4 -4 4 1 0 11 -6 15 -4 17 6
11 9 -6 11 -4 5 5 -5 9 -4 11 3 6 14 -8 -2 -46 -19 -46 -6 0 -7 -5 -3 -11 4
-8 9 -8 17 0 6 6 16 11 22 11 5 0 3 -5 -6 -10 -12 -7 -16 -21 -14 -45 1 -26
-1 -32 -10 -25 -7 6 -19 4 -34 -6 -21 -15 -21 -17 -5 -35 14 -16 20 -17 33 -6
14 11 14 10 2 -5 -11 -14 -11 -18 -1 -18 8 0 10 -3 7 -6 -4 -4 -13 -1 -21 5
-12 10 -16 8 -22 -11 -4 -13 -7 -29 -5 -37 1 -8 -2 -10 -11 -5 -10 6 -10 4 1
-9 14 -18 26 -23 16 -8 -3 5 0 13 6 17 8 4 7 9 -2 15 -11 7 -11 9 -1 9 7 0 10
4 7 10 -3 6 1 7 10 3 13 -5 14 -7 3 -14 -10 -7 -10 -9 2 -9 12 -1 11 -3 -3
-11 -17 -10 -17 -12 -2 -36 10 -14 12 -22 6 -19 -10 7 -16 -8 -11 -29 1 -5 3
-14 4 -20 1 -5 5 -15 9 -21 4 -7 0 -14 -8 -17 -10 -4 -12 -1 -8 10 4 11 2 14
-5 9 -15 -9 -16 -36 -1 -36 6 0 9 -7 5 -15 -3 -8 3 -19 12 -25 16 -11 16 -11
-1 -6 -9 3 -17 1 -17 -4 0 -5 -6 -8 -13 -6 -6 1 -9 1 -4 -1 4 -3 7 -9 7 -14 0
-6 -3 -8 -8 -6 -4 3 -7 -8 -7 -23 -1 -21 3 -26 11 -20 6 6 13 8 16 5 2 -3 5 2
5 10 0 8 -4 12 -9 9 -11 -7 -10 7 2 26 8 13 10 12 11 -5 1 -11 1 -24 0 -29 -1
-5 6 -6 16 -2 16 5 15 4 -1 -9 -18 -14 -15 -20 7 -16 5 1 6 -3 2 -9 -3 -6 -10
-8 -15 -5 -4 3 -10 -9 -12 -25 -3 -20 0 -30 8 -30 7 0 11 8 9 19 -3 15 0 18
13 14 11 -5 12 -8 4 -11 -10 -3 -10 -7 -1 -19 7 -8 8 -13 3 -11 -5 2 -21 -7
-34 -20 -20 -18 -21 -22 -6 -16 15 6 17 4 11 -6 -5 -9 -4 -11 3 -6 7 4 12 1
12 -9 0 -9 5 -13 10 -10 8 5 8 11 1 19 -6 7 -7 17 -3 21 4 5 1 5 -7 0 -9 -5
-12 -4 -7 3 10 17 29 15 23 -2 -3 -7 -1 -18 4 -23 5 -5 11 -20 14 -33 2 -12 2
-20 -2 -17 -11 12 -42 -13 -40 -32 1 -13 7 -18 20 -15 11 2 17 -2 14 -9 -3 -7
-10 -11 -16 -9 -7 1 -10 -2 -6 -8 4 -6 17 -4 36 6 29 15 30 14 20 -4 -7 -14
-7 -24 3 -37 11 -16 11 -22 -5 -39 -23 -24 -17 -35 6 -12 9 9 22 16 28 15 9 0
8 -2 0 -6 -7 -2 -13 -9 -13 -14 0 -6 5 -7 12 -3 7 4 8 3 4 -5 -4 -6 -12 -8
-18 -5 -6 4 -8 1 -6 -7 3 -8 11 -13 17 -11 6 1 11 -3 11 -9 0 -6 -6 -9 -14 -6
-25 10 -28 -6 -4 -21 13 -7 15 -11 6 -8 -21 6 -24 -14 -6 -32 7 -7 8 -12 3
-12 -6 0 -4 -4 3 -9 16 -10 22 -66 9 -84 -6 -8 -7 -6 -3 6 3 11 2 16 -4 12 -6
-3 -10 -1 -10 6 0 7 -3 10 -6 6 -4 -3 3 -21 14 -39 11 -18 17 -39 14 -47 -2
-8 0 -11 5 -8 5 3 10 0 10 -8 0 -8 -4 -12 -9 -9 -4 3 -8 0 -8 -6 0 -6 -5 -8
-13 -4 -9 6 -9 5 0 -8 7 -8 12 -17 10 -19 -1 -2 4 3 12 11 12 13 13 13 7 -3
-3 -10 -6 -21 -6 -23 0 -2 -7 -4 -16 -4 -8 0 -13 -4 -9 -10 3 -5 13 -7 23 -4
13 5 14 4 3 -4 -11 -8 -11 -10 0 -14 9 -3 8 -6 -5 -11 -9 -4 -15 -3 -12 2 3 5
0 11 -7 14 -7 3 -13 -3 -13 -13 0 -10 4 -18 9 -17 5 1 12 -4 15 -12 3 -9 0
-11 -8 -6 -7 4 -4 -4 5 -19 15 -23 15 -26 2 -26 -9 0 -18 -4 -22 -9 -5 -9 9
-9 45 2 8 2 12 2 7 -1 -4 -2 -12 -13 -19 -25 -11 -22 -10 -22 10 -4 15 14 22
15 28 6 4 -8 3 -10 -4 -5 -8 5 -10 1 -5 -9 9 -25 22 2 17 34 -3 19 -2 22 5 11
5 -8 7 -18 5 -22 -3 -4 -1 -8 5 -8 6 0 8 -8 5 -17 -5 -16 -4 -16 6 0 10 15 14
16 28 5 11 -9 14 -10 8 -1 -5 10 1 11 24 7 18 -4 30 -2 30 4 0 5 -8 8 -18 5
-10 -2 -24 2 -30 10 -9 11 -9 14 3 14 8 0 11 -5 8 -10 -4 -6 2 -8 15 -5 22 6
47 -13 35 -26 -4 -4 0 -4 10 0 9 3 17 10 17 16 0 5 -5 6 -12 2 -6 -4 -8 -3 -4
4 3 5 0 13 -6 15 -9 4 -10 6 -1 6 6 1 19 -9 27 -21 14 -20 20 -18 18 4 -1 3 6
12 16 20 15 12 16 11 3 -4 -11 -15 -11 -18 0 -18 10 0 10 -3 1 -12 -7 -7 -12
-17 -12 -22 0 -7 3 -8 8 -1 4 6 22 15 40 22 29 10 32 10 21 -3 -10 -12 -9 -13
5 -8 9 3 16 2 16 -3 0 -4 9 -14 21 -21 12 -8 18 -9 14 -3 -3 6 1 11 10 11 10
0 13 -5 9 -12 -5 -8 -3 -8 7 -2 8 5 26 9 41 10 22 0 25 -3 16 -13 -8 -10 -14
-10 -23 -3 -10 8 -15 8 -21 -1 -4 -8 -3 -9 4 -5 7 4 12 2 12 -3 0 -6 9 -11 20
-11 11 0 20 6 20 12 0 7 7 3 15 -9 9 -12 22 -20 30 -17 7 3 24 -6 36 -20 12
-14 25 -23 29 -21 4 3 13 -2 20 -10 8 -9 8 -15 2 -15 -6 0 -12 5 -14 12 -3 7
-7 5 -11 -6 -5 -11 -3 -15 5 -10 8 5 9 1 4 -12 -4 -10 -4 -15 0 -11 4 4 14 1
23 -6 14 -11 15 -10 1 7 -14 18 -13 19 3 13 10 -4 23 -7 28 -7 5 0 9 -5 9 -11
0 -5 -4 -7 -10 -4 -6 4 -7 -1 -3 -11 5 -15 7 -15 17 2 14 25 32 28 57 10 19
-13 19 -13 -7 -13 -19 0 -23 2 -13 9 12 8 11 9 0 6 -20 -6 -26 -28 -8 -28 9 0
18 -6 20 -12 4 -10 6 -10 6 0 1 6 10 12 21 12 14 0 18 5 13 18 -7 16 -6 16 11
-1 10 -9 23 -14 29 -10 8 4 7 1 -1 -9 -10 -13 -10 -17 4 -22 9 -4 19 -4 22 -1
3 3 -1 5 -9 5 -10 1 -9 4 4 11 13 8 22 7 32 -1 7 -6 15 -7 17 -3 3 4 3 2 1 -5
-4 -19 13 -49 34 -56 16 -5 15 -4 -1 9 -11 8 -16 18 -13 22 4 3 7 3 7 -2 0 -4
8 -1 17 6 9 8 14 9 10 2 -9 -15 1 -40 18 -47 9 -3 12 0 8 10 -3 7 -10 14 -15
14 -7 0 -6 5 1 13 6 8 7 18 3 22 -4 5 -2 5 5 1 7 -4 10 -14 7 -24 -5 -16 -5
-16 9 0 10 13 17 14 25 6 13 -13 56 -22 48 -10 -2 4 4 8 14 9 15 1 12 -4 -12
-26 -22 -19 -26 -28 -15 -28 9 0 14 3 12 7 -2 4 7 12 21 19 21 9 30 9 42 -1
13 -11 15 -10 9 4 -3 10 -2 20 4 23 5 4 8 1 7 -7 -2 -8 4 -12 15 -10 9 2 17
-2 17 -8 0 -6 -4 -9 -9 -6 -11 7 -8 -21 4 -31 4 -4 5 -2 1 5 -5 9 -1 15 13 19
21 5 21 6 4 27 l-18 21 24 -20 c25 -22 30 -22 40 -6 5 8 13 6 27 -5 18 -15 18
-15 -3 -9 -17 5 -23 2 -23 -9 0 -22 16 -28 30 -11 7 8 16 12 21 9 13 -8 11 10
-3 25 -11 11 -9 12 7 3 11 -6 27 -16 35 -23 13 -9 12 -10 -2 -5 -21 6 -24 -9
-4 -17 24 -10 26 22 3 44 l-22 21 25 -13 c32 -17 43 -17 55 -1 8 10 11 9 12
-7 1 -14 -4 -19 -17 -16 -14 3 -16 -1 -12 -18 5 -20 6 -20 13 -1 5 13 8 14 8
4 1 -13 2 -13 11 0 9 13 11 13 20 0 13 -20 13 -4 -1 22 -9 16 -8 19 2 13 9 -6
11 -3 6 8 -4 11 -2 14 8 10 8 -3 13 -9 10 -13 -3 -5 -2 -10 2 -13 5 -2 2 -2
-5 0 -7 1 -10 -2 -7 -7 10 -17 25 -11 36 14 9 20 18 24 46 21 28 -2 33 1 28
14 -3 9 6 3 19 -14 14 -16 26 -25 26 -20 0 6 5 3 11 -5 9 -13 10 -12 5 3 -6
19 10 24 17 5 3 -7 6 -8 6 -3 0 6 -4 17 -9 25 -8 13 -11 12 -24 -5 -9 -11 -16
-15 -16 -9 0 6 7 17 15 24 13 10 19 10 35 -5 16 -14 22 -15 35 -5 8 7 21 10
30 6 8 -3 14 -2 14 2 -3 19 2 25 11 12 9 -13 10 -13 10 0 0 13 2 13 11 0 11
-16 11 -14 -7 38 -4 11 -1 9 10 -6 10 -12 21 -20 26 -17 4 3 11 -1 14 -7 4 -9
5 -8 5 2 -2 29 1 41 10 36 5 -3 15 2 22 11 12 15 12 16 -6 9 -31 -12 -65 -14
-59 -4 3 5 12 7 19 4 7 -2 22 2 34 10 16 12 21 12 22 2 0 -7 4 -4 8 6 7 19 28
28 64 27 16 0 17 3 6 17 -11 14 -11 15 0 5 7 -6 21 -9 30 -6 13 4 13 3 2 -5
-16 -11 -25 -46 -10 -36 5 3 7 10 4 15 -6 8 8 13 27 10 4 0 3 11 -3 25 -5 15
-7 29 -4 32 3 3 5 -1 5 -9 0 -11 2 -12 9 -1 7 11 9 10 14 -3 4 -9 3 -14 -2
-11 -5 4 -7 -3 -4 -15 5 -19 7 -19 15 -5 5 9 6 20 3 26 -3 5 4 7 16 5 18 -4
73 26 90 48 3 4 10 7 15 6 21 -4 35 2 29 11 -3 6 -1 10 4 10 6 0 11 -5 11 -11
0 -7 12 -8 33 -4 21 4 27 3 19 -3 -11 -8 -11 -10 1 -15 15 -6 17 9 4 29 -4 7
1 18 11 25 14 11 15 11 5 0 -20 -23 12 -47 42 -33 18 8 26 8 31 0 4 -6 3 -8
-4 -4 -6 3 -14 1 -18 -5 -4 -8 -3 -9 4 -5 7 4 12 1 12 -6 0 -8 5 -6 11 5 5 9
7 23 3 30 -5 8 -2 8 9 -2 9 -7 14 -17 11 -22 -3 -5 3 -6 12 -2 13 5 15 3 9 -8
-8 -12 -6 -12 8 0 18 15 23 26 7 16 -5 -3 -10 -1 -10 4 0 6 6 11 14 11 8 0 17
6 20 13 3 6 3 1 -1 -13 -5 -21 -4 -23 9 -13 8 7 18 10 21 6 4 -3 -1 -12 -11
-20 -15 -13 -14 -13 6 -3 13 7 21 14 18 17 -3 4 2 16 11 27 15 17 15 18 2 8
-14 -10 -18 -10 -22 2 -4 9 -1 18 5 22 7 4 8 3 4 -4 -5 -8 -1 -10 10 -5 14 5
13 8 -7 20 l-24 14 25 -5 c14 -3 19 -3 13 0 -7 3 -13 10 -13 15 0 6 4 8 8 5 5
-3 9 1 9 8 0 8 -6 12 -14 9 -7 -3 -13 -9 -13 -15 0 -5 -5 -6 -11 -2 -8 5 -7 9
3 15 10 6 14 19 12 38 -2 21 2 33 14 40 13 8 14 10 2 11 -9 0 -11 3 -5 8 6 4
11 17 11 30 2 40 -15 7 -18 -35 -1 -7 -6 -13 -11 -13 -5 0 -6 8 -2 18 4 9 8
25 9 35 0 10 8 22 16 27 13 9 13 10 0 10 -9 0 -11 3 -5 8 12 9 15 73 3 66 -5
-3 -6 -10 -3 -15 4 -5 1 -9 -5 -9 -7 0 -9 7 -6 16 3 9 6 20 6 25 0 6 6 7 13 3
7 -5 6 0 -3 11 -9 11 -10 16 -2 11 8 -5 12 1 12 20 0 15 8 37 18 48 17 21 17
21 -5 2 -13 -11 -23 -14 -23 -8 0 6 8 17 19 24 15 10 16 15 6 25 -7 6 -15 10
-17 8 -2 -2 -4 4 -4 15 0 13 4 16 12 9 8 -7 13 -6 16 3 3 9 6 9 12 0 4 -7 2
-12 -3 -12 -6 0 -11 -4 -11 -8 0 -5 6 -9 14 -9 8 0 13 8 11 19 -2 10 1 18 6
18 6 0 7 5 3 11 -3 6 -9 7 -13 2 -10 -15 -34 -9 -37 10 -2 15 0 16 13 5 13
-11 17 -11 21 0 3 10 7 10 20 0 15 -12 15 -11 4 4 -8 9 -19 15 -27 12 -7 -3
-16 -1 -20 5 -3 6 0 9 8 5 8 -3 18 0 23 7 4 7 3 10 -3 6 -5 -3 -10 0 -10 7 0
8 6 12 14 9 7 -3 13 -11 13 -19 0 -8 5 -14 11 -14 5 0 7 4 4 10 -3 5 1 24 10
42 12 24 12 28 2 15 -12 -14 -16 -15 -26 -4 -6 8 -8 17 -4 20 3 4 1 7 -6 7 -9
0 -9 3 1 14 14 14 42 10 32 -5 -3 -5 -9 -7 -13 -5 -4 3 -8 -1 -8 -9 0 -12 3
-12 16 -3 9 7 17 13 19 14 2 1 -4 14 -13 28 -10 14 -13 26 -7 26 6 0 16 -8 22
-17 9 -15 10 -14 4 6 -4 17 -3 21 6 16 8 -5 11 -4 7 2 -4 6 -17 9 -30 8 -16
-2 -23 2 -23 15 0 10 6 16 13 13 7 -3 10 -10 6 -17 -4 -7 -1 -7 9 1 8 7 18 11
22 8 3 -3 2 1 -4 7 -16 20 -11 32 7 17 13 -11 15 -11 9 -1 -4 7 -19 18 -33 23
-14 5 -24 12 -21 15 3 2 17 0 32 -5 17 -7 26 -7 26 -1 0 6 -7 10 -15 10 -8 0
-15 5 -15 11 0 5 -5 7 -11 3 -6 -3 -4 5 6 19 15 24 15 26 -2 36 -10 6 -13 11
-8 11 6 0 11 9 12 20 1 13 -2 18 -10 13 -7 -4 -5 2 3 13 8 10 15 20 16 22 1 1
9 0 18 -4 9 -3 13 -11 9 -17 -3 -6 -1 -7 6 -3 8 6 9 12 2 20 -6 7 -8 16 -3 20
4 4 -1 12 -11 17 -9 6 -17 15 -17 20 0 6 5 7 12 3 7 -4 8 -3 4 4 -4 7 -1 12 6
12 7 0 4 6 -7 12 -26 15 -49 38 -38 38 5 0 9 9 10 20 1 13 -2 18 -10 14 -8 -5
-8 -3 1 7 18 20 15 33 -5 18 -16 -13 -17 -12 -5 2 7 10 21 15 32 12 11 -3 20
-1 20 4 0 5 -14 9 -30 8 -17 -1 -33 2 -36 7 -3 5 -2 7 3 6 8 -3 13 5 13 23 0
5 -4 8 -8 5 -4 -2 -8 4 -9 14 -1 11 2 22 8 25 5 4 9 13 9 22 0 9 8 22 18 29
16 13 16 14 -2 8 -16 -6 -17 -5 -7 17 11 21 10 22 -2 7 -8 -10 -17 -15 -21
-11 -3 3 1 14 10 24 12 14 13 21 4 36 -9 15 -10 15 -4 -7 6 -23 6 -24 -12 -10
-10 8 -25 21 -32 28 -7 6 -19 12 -25 12 -7 0 -6 4 3 10 21 13 39 12 20 -1 -13
-9 -12 -10 3 -5 11 3 16 2 12 -4 -3 -6 -2 -10 4 -10 25 0 17 19 -14 36 -37 20
-42 28 -23 40 7 5 8 3 3 -6 -6 -9 -4 -11 5 -5 9 5 11 4 6 -3 -4 -7 -2 -12 3
-12 15 0 14 13 -1 28 -10 10 -10 15 2 22 8 5 10 10 4 10 -6 0 -17 -7 -24 -15
-7 -8 -18 -15 -24 -14 -7 0 -6 2 2 6 6 2 12 9 12 14 0 6 -5 7 -10 4 -6 -4 -10
-3 -9 2 3 19 -2 34 -10 29 -4 -3 -7 10 -5 29 2 27 -1 33 -14 28 -13 -3 -14 -2
-4 4 7 6 10 18 7 29 -6 19 -6 19 9 0 9 -11 16 -15 16 -9 0 18 -27 34 -45 26
-13 -4 -16 -3 -11 5 4 7 15 12 24 12 13 0 13 2 -4 16 -10 8 -12 12 -4 8 12 -6
13 -5 3 7 -7 9 -11 25 -8 38 2 12 0 19 -5 16 -5 -3 -7 7 -5 22 2 16 4 28 5 28
1 0 3 8 5 18 2 11 0 16 -3 12 -4 -4 -7 -12 -7 -18 0 -5 -7 -12 -15 -14 -12 -4
-12 -3 -2 5 8 5 13 12 13 16 -3 23 0 36 8 31 5 -3 12 -1 15 4 4 5 -2 8 -11 6
-10 -2 -18 -4 -18 -5 0 -1 -8 -3 -18 -5 -9 -2 -15 1 -11 6 3 5 10 7 15 4 5 -4
9 1 9 9 0 9 5 15 11 13 6 -1 13 8 15 21 2 12 0 22 -5 22 -6 0 -8 -8 -6 -18 2
-12 -3 -18 -17 -18 -15 0 -17 2 -6 11 15 11 17 29 6 41 -11 11 -10 24 2 24 5
0 9 -5 7 -11 -1 -6 4 -13 11 -15 7 -1 8 0 2 3 -8 3 -7 9 1 19 6 8 8 14 4 14
-4 0 -2 7 5 16 8 9 9 14 2 12 -6 -2 -18 6 -26 17 -14 17 -17 18 -27 5 -10 -13
-10 -13 -6 0 2 8 -2 21 -9 28 -8 7 -14 9 -14 5 0 -15 -53 -34 -64 -22 -8 7 -5
8 9 3 11 -4 17 -4 13 0 -3 4 -18 9 -32 10 -19 2 -26 -1 -24 -12 2 -8 -4 -17
-12 -19 -12 -4 -12 -3 -1 5 8 6 9 12 3 16 -6 3 -13 2 -17 -4 -3 -5 -12 -10
-18 -10 -9 0 -9 2 0 8 9 6 7 11 -7 20 -16 10 -18 9 -13 -4 3 -9 0 -14 -8 -12
-8 2 -13 -4 -11 -12 3 -12 1 -12 -9 -3 -10 10 -9 16 1 30 12 15 12 16 0 6 -16
-15 -64 -18 -56 -4 3 5 -3 11 -14 14 -11 3 -18 2 -15 -2 2 -4 -2 -8 -9 -8 -8
0 -12 6 -10 12 3 7 -2 18 -11 25 -8 7 -15 9 -15 5 0 -4 -7 -2 -15 5 -13 10
-19 10 -33 -3 -16 -15 -17 -14 -16 19 1 20 -1 33 -4 30 -3 -3 -12 0 -20 7 -11
8 -10 4 3 -16 17 -26 17 -29 2 -45 -11 -10 -17 -12 -17 -4 0 7 5 12 10 12 6 0
10 5 10 12 0 6 -3 8 -6 5 -4 -3 -16 -1 -28 5 -27 16 -39 16 -49 3 -5 -5 -5 1
-2 15 6 20 5 23 -6 13 -21 -20 -31 -15 -11 5 9 10 24 17 32 14 8 -2 2 5 -15
17 -16 11 -34 21 -40 21 -5 0 -4 -4 4 -9 8 -5 9 -11 3 -15 -6 -3 -13 -2 -17 4
-3 5 -11 10 -18 10 -6 0 -2 -6 9 -14 13 -10 23 -11 32 -4 7 6 15 8 18 5 3 -3
-4 -11 -16 -17 -18 -10 -24 -9 -31 1 -8 12 -11 11 -20 -1 -9 -13 -10 -12 -5 2
3 10 1 20 -4 23 -6 4 -10 0 -10 -7 0 -9 -3 -9 -10 2 -7 11 -10 11 -10 2 0 -8
-8 -6 -22 7 -11 11 -26 18 -31 14 -6 -3 -7 -1 -3 6 4 6 11 9 15 7 4 -3 8 5 8
16 2 19 1 19 -11 3 -8 -11 -20 -16 -29 -12 -10 4 -17 0 -20 -11 -3 -9 -4 -5
-4 11 1 30 7 33 25 15 7 -7 12 -8 12 -2 0 5 -9 15 -20 22 -11 7 -20 8 -20 3 0
-13 -24 -8 -44 8 -11 10 -16 10 -16 2 0 -7 -4 -9 -10 -6 -5 3 -10 2 -10 -3 0
-11 28 -24 39 -18 4 3 7 -5 8 -17 0 -12 -1 -16 -4 -9 -3 6 -11 12 -19 12 -9 0
-12 -5 -8 -12 4 -8 3 -10 -2 -5 -5 5 -10 13 -10 18 -1 5 -2 12 -3 15 0 4 -8 1
-16 -6 -9 -7 -18 -10 -22 -6 -3 3 -1 6 6 6 7 0 10 4 7 9 -3 5 -20 7 -38 5 -22
-3 -28 -1 -19 5 9 6 0 9 -27 8 -22 0 -39 -4 -37 -7 2 -4 -2 -7 -10 -7 -12 0
-12 4 2 20 16 19 17 20 1 14 -9 -3 -19 -1 -21 6 -2 7 -3 4 -2 -5 2 -10 -1 -18
-7 -18 -5 0 -6 -6 -2 -12 4 -8 3 -9 -2 -5 -5 5 -9 16 -9 25 0 9 -6 16 -14 14
-7 -2 -23 5 -35 15 -19 16 -19 16 -7 1 12 -16 11 -18 -8 -18 -11 0 -20 5 -18
11 1 6 -4 13 -11 15 -7 1 -8 0 -2 -3 21 -10 -3 -23 -45 -23 -31 0 -47 5 -55
18 -11 16 -11 16 -6 0z m36 -39 c0 -4 -7 -6 -15 -3 -8 4 -15 1 -15 -7 0 -7 -2
-10 -5 -7 -3 3 -3 12 1 21 6 16 34 13 34 -4z m92 3 c-7 -2 -9 -9 -5 -15 3 -7
2 -8 -2 -4 -16 14 -14 36 3 29 10 -4 12 -7 4 -10z m31 3 c-3 -9 -8 -14 -10
-11 -3 3 -2 9 2 15 9 16 15 13 8 -4z m25 -5 c-7 -10 -14 -17 -17 -15 -4 4 18
35 25 35 2 0 -1 -9 -8 -20z m-120 -4 c-7 -8 -15 -12 -17 -11 -5 6 10 25 20 25
5 0 4 -6 -3 -14z m29 -8 c-3 -8 -6 -5 -6 6 -1 11 2 17 5 13 3 -3 4 -12 1 -19z
m378 -17 c3 -5 1 -12 -5 -16 -5 -3 -10 1 -10 9 0 18 6 21 15 7z m-838 -38 c-4
-3 -2 -12 4 -19 14 -17 -17 -12 -34 6 -8 9 -8 11 0 6 6 -3 14 -2 18 4 3 5 9
10 12 10 4 0 3 -3 0 -7z m-204 -100 c-3 -7 -9 -13 -14 -13 -5 0 -9 6 -9 13 0
8 6 14 14 14 8 0 12 -6 9 -14z m1412 -23 c3 -5 -1 -10 -9 -10 -9 0 -16 -5 -16
-12 0 -6 -2 -9 -5 -6 -7 7 5 38 15 38 5 0 12 -4 15 -10z m29 -9 c3 -5 -1 -14
-8 -20 -11 -9 -16 -9 -22 0 -4 8 -3 9 4 5 7 -4 12 -1 12 8 0 18 6 21 14 7z
m308 -58 c-6 -9 -17 -18 -26 -19 -9 -1 -14 2 -10 7 3 5 9 7 14 4 4 -3 10 2 14
10 3 8 8 15 11 15 3 0 2 -8 -3 -17z m64 -51 c1 -6 -2 -10 -7 -6 -5 3 -7 9 -4
14 3 5 1 11 -5 15 -5 3 -10 12 -10 18 1 14 23 -22 26 -41z m-2246 -122 c0 -5
-2 -10 -4 -10 -3 0 -8 5 -11 10 -3 6 -1 10 4 10 6 0 11 -4 11 -10z m2237 -135
c0 -8 -4 -12 -9 -9 -5 3 -6 10 -3 15 9 13 12 11 12 -6z m-2265 -32 c-10 -4
-10 -8 -1 -19 6 -8 10 -14 8 -15 -34 -7 -38 -6 -32 4 4 7 8 15 9 20 1 4 2 9 3
12 0 3 7 5 14 4 9 0 9 -2 -1 -6z m2418 -322 c2 -1 -1 -6 -7 -12 -9 -9 -16 -8
-28 5 -15 15 -15 16 7 12 13 -3 25 -5 28 -5z m1 -48 c8 -10 9 -14 2 -10 -6 4
-14 3 -18 -3 -3 -5 -1 -10 6 -10 7 0 10 -3 6 -6 -3 -3 -11 -3 -17 1 -8 5 -8
10 0 20 8 10 7 14 -2 18 -8 3 -8 6 -2 6 6 1 18 -7 25 -16z m-2571 -112 c0 -14
-18 -23 -30 -16 -6 4 -8 11 -5 16 8 12 35 12 35 0z m2605 -171 c-16 -18 -20
-34 -6 -26 5 3 14 -1 21 -9 10 -12 10 -15 -3 -15 -24 0 -42 27 -28 44 9 11 9
15 -1 19 -7 3 -3 4 9 4 20 -1 21 -3 8 -17z m-22 -165 c-3 -9 -8 -14 -10 -11
-3 3 -2 9 2 15 9 16 15 13 8 -4z m-13 -257 c0 -12 -6 -9 -26 13 -19 22 -19 22
4 8 12 -8 22 -17 22 -21z m-2540 -3 c-12 -15 -30 -12 -30 6 0 5 10 9 21 9 18
0 19 -2 9 -15z m23 -10 c-3 -9 -8 -14 -10 -11 -3 3 -2 9 2 15 9 16 15 13 8 -4z
m2445 -130 c14 5 14 4 0 -12 -8 -10 -18 -25 -20 -33 -3 -8 -5 5 -5 30 1 25 3
37 5 27 2 -12 9 -16 20 -12z m-14 -183 c-6 -4 -10 -15 -8 -24 1 -10 -2 -18 -7
-18 -7 0 -7 24 0 48 1 1 7 2 14 2 8 0 9 -3 1 -8z m-2344 -16 c0 -2 -8 -10 -17
-17 -16 -13 -17 -12 -4 4 13 16 21 21 21 13z m0 -196 c0 -5 -5 -10 -11 -10 -5
0 -7 5 -4 10 3 6 8 10 11 10 2 0 4 -4 4 -10z m-23 -35 c0 -8 -4 -12 -9 -9 -5
3 -6 10 -3 15 9 13 12 11 12 -6z m2123 -44 c0 -5 -7 -12 -16 -15 -14 -5 -15
-4 -4 9 14 17 20 19 20 6z m154 -6 c-4 -8 -8 -15 -10 -15 -2 0 -4 7 -4 15 0 8
4 15 10 15 5 0 7 -7 4 -15z m-2190 -3 c3 -5 -1 -9 -9 -9 -8 0 -12 4 -9 9 3 4
7 8 9 8 2 0 6 -4 9 -8z m266 -28 c0 -8 -19 -13 -24 -6 -3 5 1 9 9 9 8 0 15 -2
15 -3z m1642 -5 c2 -2 1 -3 -1 -2 -2 2 -10 -6 -18 -17 -14 -20 -45 -22 -63 -4
-7 7 -1 10 15 10 14 0 25 -5 25 -10 0 -6 4 -4 9 4 6 8 8 17 5 21 -2 4 3 6 11
5 8 -1 16 -4 17 -7z m-1362 -141 c0 -5 -9 -4 -20 2 -11 6 -20 12 -20 14 0 2 9
2 20 -1 11 -3 20 -9 20 -15z m1007 -15 c-4 -3 -1 -13 5 -22 7 -9 9 -13 4 -9
-4 4 -23 -2 -42 -13 -42 -23 -44 -23 -44 -4 0 8 -5 15 -12 15 -6 0 -9 3 -6 6
4 3 15 1 25 -4 10 -5 27 -6 38 -1 12 4 14 8 6 8 -11 1 -10 5 5 16 20 15 32 20
21 8z m55 -15 c-7 -7 -12 -8 -12 -2 0 14 12 26 19 19 2 -3 -1 -11 -7 -17z
m-832 -46 c0 -5 -7 -9 -15 -9 -8 0 -12 4 -9 9 3 4 9 8 15 8 5 0 9 -4 9 -8z"/>
<path d="M1310 2690 c8 -5 20 -10 25 -10 6 0 3 5 -5 10 -8 5 -19 10 -25 10 -5
0 -3 -5 5 -10z"/>
<path d="M1516 2678 c3 -5 10 -6 15 -3 13 9 11 12 -6 12 -8 0 -12 -4 -9 -9z"/>
<path d="M1544 2668 c-4 -5 -3 -12 0 -15 3 -4 6 -1 6 6 0 7 4 10 9 6 5 -3 12
-2 15 3 3 5 -2 9 -10 9 -8 0 -17 -4 -20 -9z"/>
<path d="M1597 2673 c-13 -12 -7 -35 7 -30 7 3 19 0 25 -6 8 -8 11 -8 11 1 0
7 -5 12 -11 12 -5 0 -7 6 -3 13 5 7 0 6 -11 -3 -17 -14 -18 -13 -12 3 7 18 5
21 -6 10z"/>
<path d="M1092 2666 c4 -5 1 -14 -8 -20 -13 -10 -13 -12 5 -13 28 -2 35 12 13
28 -9 7 -14 9 -10 5z"/>
<path d="M1814 2605 c3 -8 0 -15 -6 -15 -6 0 -9 -3 -5 -6 10 -11 67 -12 67 -2
0 5 5 6 12 2 7 -4 8 -3 4 4 -5 8 -13 9 -26 2 -13 -7 -21 -6 -29 4 -6 7 -8 16
-4 19 3 4 1 7 -6 7 -8 0 -11 -7 -7 -15z"/>
<path d="M782 2564 c-12 -8 -26 -13 -30 -10 -4 2 -8 -3 -8 -13 0 -10 7 -17 17
-16 23 2 50 25 43 36 -3 5 -1 9 5 9 5 0 12 -5 14 -10 3 -6 4 -5 3 2 -4 19 -19
20 -44 2z m8 -19 c-7 -9 -15 -13 -17 -11 -7 7 7 26 19 26 6 0 6 -6 -2 -15z"/>
<path d="M1960 2519 c0 -5 3 -8 8 -7 4 1 18 -3 32 -10 22 -12 23 -11 8 1 -10
8 -16 16 -13 18 2 3 -5 5 -15 6 -11 1 -20 -2 -20 -8z"/>
<path d="M223 2373 c-16 -6 -17 -36 -1 -31 6 2 12 12 14 21 1 9 2 17 1 16 -1
0 -8 -3 -14 -6z"/>
<path d="M207 2199 c7 -7 15 -10 18 -7 3 3 -2 9 -12 12 -14 6 -15 5 -6 -5z"/>
<path d="M207 2119 c7 -7 15 -10 18 -7 3 3 -2 9 -12 12 -14 6 -15 5 -6 -5z"/>
<path d="M156 1964 c-8 -20 0 -32 14 -18 5 5 5 15 1 22 -6 11 -10 10 -15 -4z"/>
<path d="M2547 1944 c-3 -4 1 -20 9 -36 12 -24 18 -27 30 -17 8 6 14 14 14 16
0 3 -8 -1 -17 -8 -15 -12 -16 -12 -10 4 11 29 -8 59 -26 41z m21 -29 c-3 -3
-9 2 -12 12 -6 14 -5 15 5 6 7 -7 10 -15 7 -18z"/>
<path d="M101 1852 c-7 -13 -6 -23 1 -30 17 -17 31 -15 25 3 -4 8 -2 17 4 20
11 7 3 25 -11 25 -5 0 -14 -8 -19 -18z m20 -5 c-6 -8 -7 -18 -3 -22 4 -5 2 -5
-5 -1 -14 8 -6 36 9 36 7 0 6 -5 -1 -13z"/>
<path d="M88 1808 c7 -7 12 -19 12 -27 0 -12 -2 -13 -9 -3 -6 11 -10 11 -18 0
-12 -15 -13 -49 -2 -42 5 2 6 11 2 19 -3 8 0 15 6 15 6 0 11 -7 11 -16 0 -13
3 -14 15 -4 8 7 12 17 9 22 -4 6 -2 13 4 17 6 3 -1 12 -16 19 -19 9 -23 9 -14
0z"/>
<path d="M2665 1651 c-3 -5 -2 -12 3 -15 5 -3 9 1 9 9 0 17 -3 19 -12 6z"/>
<path d="M60 1637 c0 -11 -5 -14 -17 -10 -15 6 -16 5 -3 -8 19 -21 37 -20 35
2 -2 24 -15 38 -15 16z"/>
<path d="M2645 1620 c-3 -5 -3 -15 1 -21 4 -8 9 -7 15 2 5 9 9 10 9 3 0 -7 7
-15 16 -18 13 -5 14 -4 6 7 -7 8 -8 18 -4 23 4 5 3 6 -2 2 -5 -4 -15 -3 -22 3
-8 7 -14 7 -19 -1z"/>
<path d="M2667 1565 c3 -8 9 -12 14 -9 12 7 11 11 -5 17 -10 4 -13 1 -9 -8z"/>
<path d="M13 1529 c-2 -23 3 -25 10 -4 4 8 3 16 -1 19 -4 3 -9 -4 -9 -15z"/>
<path d="M2679 1518 c-8 -25 -2 -67 11 -76 12 -7 17 -7 17 4 0 7 -4 11 -9 8
-13 -8 -10 10 5 25 10 11 10 13 0 7 -12 -6 -18 5 -14 27 1 6 -8 11 -10 5z"/>
<path d="M26 1404 c1 -17 -2 -24 -10 -21 -7 3 -13 -1 -13 -8 0 -7 7 -11 15 -7
11 4 10 -2 -4 -24 l-19 -29 27 25 c15 14 22 27 16 31 -11 7 -10 16 3 42 7 12
6 17 -4 17 -9 0 -13 -9 -11 -26z"/>
<path d="M2675 1320 c-3 -5 -1 -10 4 -10 6 0 11 5 11 10 0 6 -2 10 -4 10 -3 0
-8 -4 -11 -10z"/>
<path d="M5 1300 c3 -5 14 -10 23 -10 15 0 15 2 2 10 -20 13 -33 13 -25 0z"/>
<path d="M2680 1290 c-13 -9 -13 -10 0 -10 12 0 12 -2 1 -9 -9 -6 -10 -11 -2
-15 6 -4 11 -2 11 4 0 6 5 8 13 4 9 -6 9 -4 -1 8 -10 13 -10 17 0 21 7 3 9 6
3 6 -5 0 -17 -4 -25 -9z"/>
<path d="M2684 1229 c-19 -22 -19 -22 4 -8 12 8 22 17 22 21 0 12 -6 9 -26
-13z"/>
<path d="M29 1173 c0 -5 -3 -21 -5 -38 -3 -16 -3 -27 0 -24 3 3 7 14 9 25 1
10 6 25 10 32 5 7 4 12 -2 12 -6 0 -11 -3 -12 -7z"/>
<path d="M53 1022 c1 -14 5 -18 11 -12 7 7 6 14 -1 21 -9 9 -12 7 -10 -9z"/>
<path d="M80 1019 c0 -5 5 -7 10 -4 6 3 10 8 10 11 0 2 -4 4 -10 4 -5 0 -10
-5 -10 -11z"/>
<path d="M94 908 c-15 -18 -15 -20 -2 -9 16 12 17 10 13 -20 -4 -29 -2 -31 11
-17 12 12 13 20 5 36 -6 10 -7 22 -4 26 3 3 4 6 1 6 -3 0 -13 -10 -24 -22z"/>
<path d="M141 693 c-1 -17 16 -25 25 -12 4 7 3 9 -4 5 -5 -3 -13 0 -15 6 -4 9
-6 10 -6 1z"/>
<path d="M144 570 c0 -9 5 -17 11 -17 6 0 11 8 11 17 0 9 -5 17 -11 17 -6 0
-11 -8 -11 -17z"/>
<path d="M2559 518 c-6 -23 -7 -48 -1 -48 4 0 8 11 8 25 0 21 -4 33 -7 23z"/>
<path d="M627 256 c-3 -8 4 -22 16 -33 l22 -18 -19 23 c-11 12 -14 22 -8 22 6
0 19 -11 28 -25 16 -25 64 -60 50 -36 -4 6 -1 11 6 11 7 0 0 12 -15 26 -16 14
-31 23 -34 20 -4 -3 -14 1 -23 9 -15 14 -18 14 -23 1z m76 -39 c4 3 7 1 7 -5
0 -20 -19 -13 -30 11 -10 20 -10 20 3 5 8 -10 17 -15 20 -11z"/>
<path d="M1995 220 c-4 -6 -13 -9 -21 -6 -8 3 -14 -1 -14 -10 0 -8 -11 -26
-25 -39 -13 -14 -20 -25 -15 -25 5 0 12 5 15 10 4 6 11 7 17 4 7 -4 8 -2 4 4
-6 11 6 16 27 13 4 0 7 4 7 10 0 6 -7 8 -17 4 -15 -5 -16 -4 -5 7 9 9 17 10
31 1 15 -9 17 -8 16 8 -2 24 -11 33 -20 19z"/>
<path d="M908 112 c-4 -13 1 -18 16 -20 15 -1 17 1 7 7 -7 5 -10 14 -7 20 4 6
3 11 -2 11 -5 0 -12 -8 -14 -18z"/>
<path d="M974 92 c-1 -15 1 -21 3 -14 3 6 8 10 13 7 5 -3 7 3 6 12 -4 28 -21
25 -22 -5z"/>
<path d="M1597 83 c-13 -12 -7 -25 9 -19 11 4 15 2 11 -7 -3 -8 1 -14 8 -14 7
0 11 6 8 13 -3 8 4 11 20 10 16 -2 24 1 21 8 -6 15 -44 18 -44 4 0 -7 -4 -7
-13 1 -8 6 -17 8 -20 4z"/>
<path d="M1106 71 c-3 -5 1 -14 9 -21 11 -9 15 -9 15 -1 0 7 4 10 9 6 5 -3 13
0 17 6 4 7 3 9 -4 5 -6 -3 -13 -2 -17 4 -8 12 -22 13 -29 1z"/>
<path d="M1217 53 c-4 -3 -7 -11 -7 -17 0 -6 5 -4 10 4 6 10 10 11 10 3 0 -7
7 -13 15 -13 8 0 15 5 15 12 0 6 -3 8 -7 5 -3 -4 -11 -2 -18 3 -7 5 -15 7 -18
3z"/>
<path d="M1310 30 c8 -5 20 -10 25 -10 6 0 3 5 -5 10 -8 5 -19 10 -25 10 -5 0
-3 -5 5 -10z"/>
</g>
</svg>
